<?xml version="1.0" encoding="utf-8"?>
<!-- Generator: Adobe Illustrator 23.0.6, SVG Export Plug-In . SVG Version: 6.00 Build 0)  -->
<svg version="1.1" id="Layer_1" xmlns="http://www.w3.org/2000/svg" xmlns:xlink="http://www.w3.org/1999/xlink" x="0px" y="0px"
	 viewBox="0 0 577.3 135.8" style="enable-background:new 0 0 577.3 135.8;" xml:space="preserve">
<style type="text/css">
	.st0{fill:#01CD3E;}
	.st1{fill:#FFFFFF;}
</style>
<path class="st0" d="M115.9,19.9C103.1,7.1,86.1,0,67.9,0s-35.2,7.1-48,19.9S0,49.7,0,67.9s7.1,35.2,19.9,48s29.8,19.9,48,19.9
	s35.2-7.1,48-19.9s19.9-29.8,19.9-48S128.7,32.7,115.9,19.9z M123.2,61.7L94,35.2L64.1,63.4L48.4,78.2v-22l23.8-22.6L90,16.8
	C107.9,24.6,121,41.5,123.2,61.7z M122.7,77.7c-1.1,5.9-3.1,11.5-5.8,16.7l-16.7-15.1V57.4L122.7,77.7z M76.4,12.8L63.8,24.7
	L48.3,39.4V15.8c6.1-2.3,12.7-3.6,19.6-3.6C70.8,12.2,73.6,12.4,76.4,12.8z M36.2,78.6L13.1,57.9c1.1-6,3.2-11.7,6.1-16.9l17,15.3
	V78.6z M36.2,22.2v17.7L26.3,31C29.2,27.6,32.5,24.7,36.2,22.2z M12.5,73.7l29.9,26.8l30-28.2l15.5-14.7v21.6l-42,39.7
	C27.8,111.2,14.7,94.1,12.5,73.7z M59.5,122.9L87.9,96v23.8c-6.2,2.4-13,3.7-20.1,3.7C65,123.5,62.2,123.3,59.5,122.9z M100.1,113.2
	V95.6l9.7,8.8C107,107.7,103.7,110.6,100.1,113.2z"/>
<g>
	<path class="st1" d="M328.6,45.3c0-4.2-3.4-7.6-7.6-7.6c-3.1,0-5.8,1.9-7,4.5c-5-2.9-10.7-4.5-16.8-4.5c-18.5,0-33.5,15-33.5,33.5
		s15,33.5,33.5,33.5c6.1,0,11.9-1.7,16.8-4.5c1.2,2.7,3.9,4.5,7,4.5c4.2,0,7.6-3.4,7.6-7.6V45.3z M297.1,89.5
		c-10.1,0-18.3-8.2-18.3-18.3s8.2-18.3,18.3-18.3c7,0,13.1,4,16.2,9.8v16.9C310.2,85.5,304.1,89.5,297.1,89.5z"/>
	<path class="st1" d="M550.9,104.8c-4.2,0-7.6-3.4-7.6-7.6V45.4c0-4.2,3.4-7.6,7.6-7.6s7.6,3.4,7.6,7.6v51.8
		C558.6,101.3,555.2,104.8,550.9,104.8z"/>
	<path class="st1" d="M457.4,45.3c0-4.2-3.4-7.6-7.6-7.6c-3.1,0-5.8,1.9-7,4.5c-5-2.9-10.7-4.5-16.8-4.5c-18.5,0-33.5,15-33.5,33.5
		s15,33.5,33.5,33.5c6.1,0,11.9-1.7,16.8-4.5c1.2,2.7,3.9,4.5,7,4.5c4.2,0,7.6-3.4,7.6-7.6V45.3z M425.9,89.5
		c-10.1,0-18.3-8.2-18.3-18.3s8.2-18.3,18.3-18.3c7,0,13.1,4,16.2,9.8v16.9C439,85.5,432.9,89.5,425.9,89.5z"/>
	<path class="st1" d="M500.3,37.7c-5.9,0-11.4,1.5-16.2,4.2V17.1c0-4.2-3.4-7.6-7.6-7.6s-7.6,3.4-7.6,7.6v80.1
		c0,4.2,3.4,7.6,7.6,7.6c3.1,0,5.8-1.9,7-4.5c5,2.9,10.7,4.5,16.8,4.5c18.5,0,33.5-15,33.5-33.5S518.8,37.7,500.3,37.7z M500.3,89.5
		c-7,0-13.1-4-16.2-9.8V62.8c3.1-5.8,9.2-9.8,16.2-9.8c10.1,0,18.3,8.2,18.3,18.3S510.3,89.5,500.3,89.5z"/>
	<circle class="st1" cx="550.9" cy="18.2" r="10.6"/>
	<path class="st1" d="M257,37.1c-3.7-1.5-8.2,0-10.2,3.5c-0.4,0.7-0.7,1.3-0.8,2c-0.3,1.3-0.7,2.7-1.3,3.9l-13,30.8l-13.5-31.8
		c-1.2-2.8-3.9-4.6-7-4.6l0,0c-3,0-5.8,1.8-7,4.6l-13.8,32l-13-30.7c-0.5-1.2-1-2.5-1.3-3.8c-0.6-2.9-2.9-5.5-6.2-6.3
		c-3.4-0.8-7,0.8-8.8,3.8c-1.7,2.8-1.5,6.2,0.2,8.6c0.8,1.3,1.6,2.6,2.2,4.1l19.7,46.9c1.2,2.8,3.9,4.7,7,4.7c0,0,0,0,0.1,0
		c3,0,5.8-1.8,7-4.6l14-32.3l13.7,32.2c1.2,2.8,4,4.7,7,4.7l0,0c3.1,0,5.8-1.9,7-4.7l19.7-46.9c0.6-1.5,1.4-2.9,2.3-4.2
		c0.2-0.3,0.4-0.7,0.6-1.1C263.2,43.6,261.2,38.8,257,37.1z"/>
	<path class="st1" d="M363.7,63.6c-1.7-0.1-10.2-1-10.2-4.8c0-5.2,5.7-5.8,8.1-5.8c5.1,0,7.5,1.9,7.9,2.3c1.4,1.6,3.5,2.6,5.8,2.6
		c4.2,0,7.6-3.4,7.6-7.6c0-1.8-0.6-3.4-1.6-4.7l0,0c-0.6-0.8-6.7-7.9-19.7-7.9c-13.8,0-23.4,8.7-23.4,21.1c0,4.3,1.8,18.3,24.3,20.1
		c3.1,0.2,8.3,1.3,8.3,5.5c0,5.1-8.8,5.2-9.2,5.2c-7,0-11.1-2.7-11.7-3.2c-1.3-1.2-3.1-1.9-5.1-1.9c-4.2,0-7.6,3.4-7.6,7.6
		c0,2.4,1.1,4.6,2.9,6l0,0c0.8,0.7,8.4,6.8,21.6,6.8c3.1,0,9.2-0.5,14.8-3.8c6.2-3.6,9.7-9.6,9.7-16.7
		C386.2,72.8,377.4,64.7,363.7,63.6z"/>
	<g>
		<path class="st1" d="M577.3,14.4c0,3.4-1.8,5-4.9,5c-3,0-4.9-1.6-4.9-5s1.8-5,4.9-5C575.5,9.3,577.3,10.9,577.3,14.4z M576.2,14.4
			c0-2.9-1.4-4.1-3.8-4.1c-2.4,0-3.8,1.2-3.8,4.1c0,2.8,1.3,4.1,3.8,4.1C574.8,18.4,576.2,17.2,576.2,14.4z M571.5,15v1.5
			c0,0.3-0.2,0.5-0.5,0.5s-0.5-0.2-0.5-0.5v-4.3c0-0.2,0.2-0.4,0.4-0.4h1.9c1,0,1.7,0.8,1.7,1.6c0,1-0.6,1.6-1.3,1.6l1.1,1.2
			c0.1,0.1,0.1,0.2,0.1,0.3c0,0.3-0.2,0.5-0.5,0.5c-0.2,0-0.3-0.1-0.4-0.2l-1.3-1.7L571.5,15L571.5,15z M572.8,14.2
			c0.5,0,0.8-0.3,0.8-0.8c0-0.4-0.3-0.8-0.8-0.8h-1.2v1.5h1.2V14.2z"/>
	</g>
</g>
</svg>
